<?xml version="1.0" standalone="no"?>
<!DOCTYPE svg PUBLIC "-//W3C//DTD SVG 20010904//EN"
 "http://www.w3.org/TR/2001/REC-SVG-20010904/DTD/svg10.dtd">
<svg version="1.0" xmlns="http://www.w3.org/2000/svg"
 width="1024.000000pt" height="1024.000000pt" viewBox="0 0 1024.000000 1024.000000"
 preserveAspectRatio="xMidYMid meet">
<metadata>
Created by potrace 1.11, written by Peter Selinger 2001-2013
</metadata>
<g transform="translate(0.000000,1024.000000) scale(0.100000,-0.100000)"
fill="#000000" stroke="none">
<path d="M4960 8876 l0 -593 -92 -7 c-210 -15 -474 -67 -701 -137 -55 -17
-101 -29 -103 -26 -3 2 -104 244 -225 538 -122 294 -225 538 -230 543 -7 8
-272 -94 -291 -112 -4 -4 25 -83 63 -177 39 -93 140 -338 225 -543 85 -205
154 -374 154 -376 0 -2 -56 -34 -125 -71 -205 -111 -401 -244 -568 -389 l-69
-59 -422 422 -421 421 -115 -115 -115 -115 422 -423 422 -422 -41 -45 c-128
-142 -292 -380 -402 -584 -38 -69 -70 -126 -72 -126 -2 0 -243 99 -536 221
-293 122 -539 222 -546 223 -16 1 -137 -283 -125 -294 4 -4 248 -107 542 -228
293 -122 535 -223 538 -225 4 -4 -73 -268 -79 -271 -126 -53 -313 -174 -432
-279 -78 -69 -200 -213 -247 -290 l-34 -56 -282 -1 -283 0 0 -165 0 -165 230
0 230 0 1 -227 c1 -262 3 -330 24 -653 14 -219 22 -308 30 -351 3 -14 -20 -27
-113 -65 -64 -26 -121 -51 -126 -55 -8 -7 96 -273 114 -293 5 -5 42 6 86 24
57 24 79 29 84 19 5 -6 15 -57 24 -113 17 -110 23 -139 30 -164 3 -9 8 -33 11
-52 6 -37 10 -52 46 -170 13 -41 22 -78 21 -82 -1 -5 2 -8 8 -8 5 0 10 -6 10
-13 0 -19 24 -67 33 -67 5 0 5 -5 2 -10 -3 -6 1 -13 9 -16 9 -3 16 -13 16 -21
0 -28 111 -153 199 -224 47 -38 92 -74 99 -80 7 -6 23 -16 35 -23 12 -7 46
-27 75 -46 l53 -33 -38 -39 -37 -38 117 -118 117 -117 78 78 78 78 40 -17 c38
-16 82 -30 189 -59 47 -13 120 -23 209 -31 35 -2 114 9 211 31 16 3 36 12 44
18 8 7 17 12 20 11 39 -7 456 219 550 298 11 9 32 2 98 -31 52 -25 83 -47 80
-54 -3 -7 -104 -252 -226 -545 -122 -293 -221 -536 -221 -540 0 -4 66 -34 148
-68 109 -45 149 -57 155 -48 4 7 106 252 228 546 121 293 222 534 224 536 1 1
63 -15 136 -38 218 -65 575 -130 721 -130 l38 0 2 -597 3 -598 160 0 160 0 3
598 2 597 38 0 c146 0 503 65 721 130 73 23 136 39 138 36 3 -3 105 -247 228
-543 122 -295 227 -539 233 -541 16 -5 292 112 292 123 0 6 -97 245 -216 530
-119 286 -220 530 -225 542 -8 21 -3 26 54 54 104 53 216 119 339 201 116 77
295 216 332 257 l20 22 423 -423 423 -423 117 118 118 117 -423 423 -423 423
22 20 c100 90 347 452 454 664 32 63 37 69 58 61 12 -5 257 -106 543 -225 287
-119 525 -216 530 -216 14 0 128 290 118 299 -5 4 -247 106 -539 226 -291 120
-534 221 -538 225 -4 4 10 67 33 141 65 217 130 575 130 721 l0 38 598 2 597
3 0 160 0 160 -595 3 -596 2 -12 128 c-20 223 -69 464 -137 681 -15 45 -25 85
-22 87 2 3 244 104 538 225 294 122 538 225 542 229 7 6 -95 275 -111 292 -4
4 -142 -49 -307 -117 -165 -68 -301 -122 -303 -121 -1 2 10 37 26 77 42 106
64 234 66 378 4 315 -48 463 -189 535 -58 30 -64 31 -185 30 -112 -1 -135 -4
-215 -31 -49 -17 -91 -30 -93 -28 -2 1 94 101 212 222 l215 219 -112 112 -112
112 -421 -421 -422 -422 -69 59 c-167 145 -363 278 -569 389 -70 38 -123 73
-120 79 7 18 201 485 278 671 145 351 168 409 161 416 -5 4 -70 33 -146 65
-106 44 -141 54 -147 45 -4 -7 -108 -255 -230 -551 l-223 -537 -51 19 c-156
60 -539 138 -753 154 l-93 7 0 593 0 594 -165 0 -165 0 0 -594z m590 -710
c559 -85 1031 -280 1465 -606 129 -97 262 -216 270 -241 9 -28 -8 -59 -48 -85
-36 -24 -162 -127 -562 -459 -148 -123 -358 -296 -465 -385 -107 -89 -217
-180 -244 -203 -28 -23 -88 -73 -135 -111 -47 -38 -88 -72 -91 -75 -3 -4 -30
-26 -60 -51 -69 -57 -32 -26 -466 -387 -203 -169 -390 -324 -414 -343 -24 -19
-48 -40 -55 -46 -6 -6 -38 -33 -70 -59 -33 -27 -62 -51 -65 -54 -3 -3 -36 -31
-75 -62 -38 -31 -79 -65 -90 -75 -60 -56 -419 -344 -538 -432 -255 -187 -343
-232 -417 -212 -130 35 -218 289 -299 870 -51 356 -101 511 -210 650 -71 90
-140 139 -247 176 -66 23 -97 28 -184 28 -122 1 -169 -4 -303 -34 -54 -12
-101 -20 -103 -17 -9 8 79 260 135 392 209 485 561 925 1001 1251 113 84 340
219 474 283 335 159 668 255 1030 296 162 19 619 13 766 -9z m2511 -2053 c25
-65 79 -267 102 -383 76 -376 79 -840 6 -1205 -124 -622 -414 -1163 -864
-1610 -510 -507 -1175 -819 -1888 -886 -169 -15 -585 -7 -727 16 -338 53 -606
134 -898 271 -113 53 -126 66 -86 88 10 6 21 14 24 17 3 3 46 35 95 69 116 82
282 207 320 242 17 16 33 28 37 28 4 0 13 6 20 13 7 6 81 66 163 132 83 65
155 124 161 130 6 5 30 26 54 45 25 19 67 55 95 80 29 25 94 80 146 122 52 43
112 94 134 114 22 20 62 55 89 78 26 22 61 52 76 66 15 14 40 36 56 49 41 35
326 291 345 310 9 9 44 41 79 71 35 30 71 62 80 70 9 8 49 44 90 79 41 36 82
72 90 81 8 9 98 90 200 181 211 186 256 227 279 250 9 9 102 91 206 184 105
93 192 171 195 174 3 3 43 40 90 81 47 41 90 80 96 85 6 6 41 37 79 70 37 33
73 65 79 71 6 5 58 52 116 103 156 139 178 158 281 252 52 48 112 102 134 120
22 19 56 48 74 64 31 27 55 49 150 133 14 13 44 40 66 60 68 63 128 112 137
112 5 0 13 -12 19 -27z"/>
<path d="M1122 7568 c-692 -1071 -924 -2384 -641 -3633 270 -1192 1013 -2254
2049 -2930 531 -347 1160 -595 1770 -699 1014 -173 2037 -23 2943 430 751 376
1397 952 1860 1659 911 1392 1026 3157 302 4660 -97 202 -332 605 -352 605 -3
0 3 -12 13 -27 55 -85 147 -247 219 -388 253 -497 409 -1015 482 -1605 26
-210 26 -822 0 -1030 -134 -1077 -567 -1993 -1297 -2743 -465 -479 -1017 -847
-1635 -1092 -1097 -434 -2333 -434 -3430 0 -892 353 -1664 980 -2188 1778
-408 619 -647 1282 -744 2057 -26 208 -26 820 0 1030 71 570 213 1056 452
1545 72 147 190 359 249 448 10 15 16 27 13 27 -3 0 -32 -42 -65 -92z"/>
</g>
</svg>
